# xmcd
#
# Track frame offsets: 
#        150
#        11398
#        25700
#        40530
#        55605
#        71118
#        89070
#        104215
#        119530
#        135295
#        148715
#        162430
#
# Disc length: 2352 seconds
#
# Revision: 5
# Processed by: cddbd v1.5.2PL0 Copyright (c) Steve Scherf et al.
# Submitted via: ExactAudioCopyFreeDBPlugin 1.0
#
DISCID=a2092e0c
DTITLE=Various Artist - Didn't It Blow Your Mind!:  Soul Hits of the 
DTITLE='70s [Rhino series]
DYEAR=1991
DGENRE=SMB
TTITLE0=Joe Tex - I Gotcha
TTITLE1=The Honey Cone - The Day I Found Myself
TTITLE2=The Staple Singers - I'll Take You There
TTITLE3=Isaac Hayes - Do Your Thing
TTITLE4=The Jimmy Castor Bunch - Troglodyte (Cave Man)
TTITLE5=Bill Withers - Lean on Me
TTITLE6=Frederick Knight - I've Been Lonely for So Long
TTITLE7=The Cornelius Brothers and Sister Rose - Too Late to Turn Back N
TTITLE7=ow
TTITLE8=Luther Ingram - (If Loving You is Wrong) I Don't Want to Be Ri
TTITLE8=ght
TTITLE9=Joe Simon - Power of Love
TTITLE10=The Cornelius Brothers and Sister Rose - Don't Ever Be Lonely (
TTITLE10=A Poor Little Fool Like Me)
TTITLE11=The O'Jays - Back Stabbers
EXTD=
EXTT0=
EXTT1=
EXTT2=
EXTT3=
EXTT4=
EXTT5=
EXTT6=
EXTT7=
EXTT8=
EXTT9=
EXTT10=
EXTT11=
PLAYORDER=
